<?xml version="1.0" encoding="UTF-8" standalone="no"?>
<svg
   xmlns:dc="http://purl.org/dc/elements/1.1/"
   xmlns:cc="http://creativecommons.org/ns#"
   xmlns:rdf="http://www.w3.org/1999/02/22-rdf-syntax-ns#"
   xmlns:svg="http://www.w3.org/2000/svg"
   xmlns="http://www.w3.org/2000/svg"
   xmlns:sodipodi="http://sodipodi.sourceforge.net/DTD/sodipodi-0.dtd"
   xmlns:inkscape="http://www.inkscape.org/namespaces/inkscape"
   width="107.2915mm"
   height="50.214573mm"
   viewBox="0 0 107.2915 50.214573"
   version="1.1"
   id="svg8"
   inkscape:version="1.0.1 (3bc2e813f5, 2020-09-07)"
   sodipodi:docname="logo.svg">
  <defs
     id="defs2" />
  <sodipodi:namedview
     id="base"
     pagecolor="#ffffff"
     bordercolor="#666666"
     borderopacity="1.0"
     inkscape:pageopacity="0.0"
     inkscape:pageshadow="2"
     inkscape:zoom="1"
     inkscape:cx="169.64424"
     inkscape:cy="255.91908"
     inkscape:document-units="mm"
     inkscape:current-layer="layer1"
     inkscape:document-rotation="0"
     showgrid="false"
     fit-margin-top="0"
     fit-margin-left="0"
     fit-margin-right="0"
     fit-margin-bottom="0"
     inkscape:window-width="1920"
     inkscape:window-height="1019"
     inkscape:window-x="0"
     inkscape:window-y="0"
     inkscape:window-maximized="1" />
  <metadata
     id="metadata5">
    <rdf:RDF>
      <cc:Work
         rdf:about="">
        <dc:format>image/svg+xml</dc:format>
        <dc:type
           rdf:resource="http://purl.org/dc/dcmitype/StillImage" />
        <dc:title></dc:title>
      </cc:Work>
    </rdf:RDF>
  </metadata>
  <g
     inkscape:label="Katman 1"
     inkscape:groupmode="layer"
     id="layer1"
     transform="translate(-21.657669,-42.594522)">
    <g
       id="g920">
      <rect
         style="fill:#ffffff;stroke:#000000;stroke-width:1.74931;stroke-miterlimit:4;stroke-dasharray:none"
         id="rect90"
         width="105.54218"
         height="48.465263"
         x="22.532324"
         y="43.469177" />
      <g
         id="g88"
         transform="translate(1.0151962,1.6745193)">
        <path
           id="rect34"
           style="stroke-width:1.7647"
           d="m 103.8125,167.76172 v 4.32812 h 26.44922 v 82.58008 h 46.44336 v 19.99414 H 103.8125 v 1.99219 h 214.89844 c -8.88555,0 -15.66416,-2.72537 -20.33594,-8.17578 -4.62598,-5.45042 -6.93945,-13.37448 -6.93945,-23.77149 V 197.7168 h 24.73242 v 7.69336 c 0,4.16796 -0.0226,9.41372 -0.0684,15.73437 -0.0457,6.27485 -0.0684,10.46538 -0.0684,12.57227 0,6.18324 0.15985,10.64837 0.48047,13.39648 0.32061,2.70231 0.86981,4.67156 1.64844,5.9082 1.00764,1.60307 2.3149,2.84071 3.91796,3.71094 1.64888,0.87024 3.52593,1.30469 5.63282,1.30469 5.1298,0 9.16048,-1.96926 12.09179,-5.9082 2.93132,-3.93897 4.39649,-9.41225 4.39649,-16.41993 V 197.7168 h 24.5957 v 76.94726 h -24.5957 V 263.5332 c -3.70995,4.48858 -7.64845,7.81021 -11.81641,9.96289 -4.12216,2.10689 -8.67948,3.16016 -13.67187,3.16016 h 139.02539 v -1.99219 h -26.03906 l -17.3125,-24.32226 -17.10743,24.32226 H 371.2382 L 400.36906,235.29688 372.6132,197.7168 h 26.03906 l 15.73243,22.80859 15.93945,-22.80859 h 26.03711 l -27.75586,37.44336 29.13086,39.5039 V 167.76172 H 205.46289 v 20.06055 h -24.5957 v -20.06055 z m 156.00391,28.09961 c 8.88554,0 15.61708,2.72537 20.19726,8.17578 4.62598,5.45041 6.93945,13.37448 6.93945,23.77148 v 46.85547 H 262.2207 v -7.62695 -28.23633 c 0,-6.64126 -0.15985,-11.22114 -0.48047,-13.74023 -0.27481,-2.5191 -0.77889,-4.37556 -1.51171,-5.56641 -0.96185,-1.60306 -2.26716,-2.83875 -3.91602,-3.70898 -1.64886,-0.91604 -3.52788,-1.375 -5.63477,-1.375 -5.12979,0 -9.16048,1.99376 -12.09179,5.97851 -2.93132,3.93895 -4.39649,9.41226 -4.39649,16.41992 v 37.85547 h -24.5957 V 197.7168 h 24.5957 v 11.26758 c 3.70995,-4.48858 7.64845,-7.78765 11.81641,-9.89454 4.16796,-2.15268 8.77235,-3.22851 13.81055,-3.22851 z m -78.94922,1.85547 h 24.5957 v 76.94726 h -24.5957 z"
           transform="scale(0.26458333)" />
        <text
           xml:space="preserve"
           style="font-style:normal;font-weight:normal;font-size:14.5709px;line-height:1.25;font-family:sans-serif;letter-spacing:2.41452px;fill:#000000;fill-opacity:1;stroke:none;stroke-width:0.364275"
           x="26.505466"
           y="84.724304"
           id="text16"><tspan
             sodipodi:role="line"
             id="tspan14"
             x="26.505466"
             y="84.724304"
             style="font-style:normal;font-variant:normal;font-weight:bold;font-stretch:normal;font-family:Montserrat;-inkscape-font-specification:'Montserrat Bold';stroke-width:0.364275">is my way</tspan></text>
      </g>
    </g>
  </g>
</svg>
